<?xml version="1.0" encoding="utf-8"?>
<!-- Generator: Adobe Illustrator 28.0.0, SVG Export Plug-In . SVG Version: 6.00 Build 0)  -->
<svg version="1.1" id="Ebene_1" xmlns="http://www.w3.org/2000/svg" xmlns:xlink="http://www.w3.org/1999/xlink" x="0px" y="0px"
	 viewBox="0 0 98.2 34.9" style="enable-background:new 0 0 98.2 34.9;" xml:space="preserve">
<style type="text/css">
	.st0{fill:#004567;}
	.st1{fill:#004567;stroke:#004567;stroke-miterlimit:10;}
</style>
<path class="st0" d="M0.5,14.9h8c1.3,0,2.6,0.2,3.8,0.8c1,0.5,2,1.2,2.7,2.1c0.7,0.9,1.2,2,1.5,3.1c0.7,2.5,0.7,5,0,7.5
	c-0.3,1.1-0.8,2.1-1.5,3.1c-0.7,0.9-1.6,1.6-2.6,2.1c-1.2,0.5-2.5,0.8-3.8,0.8h-8L0.5,14.9z M3.9,31.5h3.3c1.1,0,2.2-0.1,3.2-0.5
	c0.8-0.3,1.5-0.8,2-1.5c0.5-0.6,0.8-1.4,1-2.2c0.2-0.9,0.3-1.8,0.3-2.7c0-0.9-0.1-1.8-0.3-2.7c-0.2-0.8-0.5-1.5-1-2.2
	c-0.5-0.7-1.2-1.2-2-1.5c-1-0.4-2.1-0.6-3.2-0.5H3.9V31.5z"/>
<path class="st0" d="M19.6,14.9h3.1v2.9h-3.1V14.9z M19.6,20.2h3.1v14h-3.1V20.2z"/>
<path class="st0" d="M24.6,14.9h15.6v2.9h-6.1v16.4h-3.4V17.9h-6.1V14.9z"/>
<path class="st0" d="M45.2,14.9h3.6l7.4,19.3h-3.6l-1.8-5.1h-7.7l-1.8,5.1h-3.5L45.2,14.9z M44,26.5h5.9L47,18.3h-0.1L44,26.5z"/>
<path class="st0" d="M57.9,14.9h3.4v7.7h8.8v-7.7h3.4v19.3h-3.4v-8.7h-8.8v8.7h-3.4V14.9z"/>
<line class="st1" x1="70.3" y1="5.6" x2="79.2" y2="16"/>
<line class="st1" x1="91.1" y1="6.8" x2="79.2" y2="16"/>
<circle class="st0" cx="92.1" cy="6" r="5.4"/>
<circle class="st0" cx="70.3" cy="5.6" r="3.5"/>
<circle class="st0" cx="79.2" cy="16" r="2.6"/>
<rect x="19.6" y="14.9" class="st0" width="20.6" height="2.9"/>
</svg>
